# xmcd
#
# Track frame offsets: 
#        150
#        12645
#        23360
#        35572
#        50095
#        60900
#        73147
#        86242
#        97117
#        110090
#        120040
#        129700
#        139982
#        152040
#        163660
#        177490
#        187717
#        201352
#        211285
#        224552
#        234392
#        246202
#        257360
#
# Disc length: 3574 seconds
#
# Revision: 1
# Processed by: cddbd v1.5.2PL0 Copyright (c) Steve Scherf et al.
# Submitted via: ExactAudioCopy v1.0b3
#
DISCID=4e0df417
DTITLE=Various Artist - Country Greatest Hits 
DYEAR=2001
DGENRE=Country
TTITLE0=Kenny Rogers - Reuben James
TTITLE1=Dolly Parton - Honky tonk angels
TTITLE2=Faron Young - Sweet dreams
TTITLE3=Patsy Cline - Then you'll know
TTITLE4=Billie Jo Spears - I´m so lonesome I could cry
TTITLE5=Willie Nelson - I can't find the time
TTITLE6=Kenny Rogers - Ruby, don't take your love to town
TTITLE7=Stonewall Jackson - Things to talk about
TTITLE8=Johnny Paycheck - Talk about me
TTITLE9=Willie Nelson - I didn't sleep a wink
TTITLE10=Ned Miller - From a jack to a king
TTITLE11=Waylon Jennings - White lightning
TTITLE12=Billie Jo Spears - Look, what they've done to my song
TTITLE13=Dolly Parton - Makin' believe
TTITLE14=Willie Nelson - Home is, where you´re happy
TTITLE15=Ferlin Husky - Wings of a dove
TTITLE16=Kenny Rogers - Shine on ruby mountain
TTITLE17=Donna Fargo - Sticks and stones
TTITLE18=Lynn Anderson - Rose garden
TTITLE19=Patsy Cline - Turn the cards slowly
TTITLE20=Johnny Lee - Ramblin' rose
TTITLE21=Faron Young - Country girl
TTITLE22=Patsy Cline - The heart you break may be your own
EXTD=
EXTT0=
EXTT1=
EXTT2=
EXTT3=
EXTT4=
EXTT5=
EXTT6=
EXTT7=
EXTT8=
EXTT9=
EXTT10=
EXTT11=
EXTT12=
EXTT13=
EXTT14=
EXTT15=
EXTT16=
EXTT17=
EXTT18=
EXTT19=
EXTT20=
EXTT21=
EXTT22=
PLAYORDER=
